<?xml version="1.0" standalone="no"?>
<!DOCTYPE svg PUBLIC "-//W3C//DTD SVG 20010904//EN"
 "http://www.w3.org/TR/2001/REC-SVG-20010904/DTD/svg10.dtd">
<svg version="1.0" xmlns="http://www.w3.org/2000/svg"
 width="512.000000pt" height="512.000000pt" viewBox="0 0 512.000000 512.000000"
 preserveAspectRatio="xMidYMid meet">
<metadata>
Created by potrace 1.14, written by Peter Selinger 2001-2017
</metadata>
<g transform="translate(0.000000,512.000000) scale(0.100000,-0.100000)"
fill="#000000" stroke="none">
<path d="M1455 5100 c-160 -63 -235 -253 -160 -405 24 -51 61 -93 110 -129 23
-17 58 90 -630 -1941 -108 -319 -230 -679 -271 -800 -117 -345 -205 -607 -361
-1065 -126 -374 -143 -432 -142 -483 5 -148 119 -264 269 -274 56 -4 81 0 185
35 66 23 374 127 685 232 311 105 624 211 695 235 72 24 330 112 575 195 426
145 842 285 1733 585 l407 137 46 -50 c60 -68 135 -104 217 -103 76 0 94 4
147 31 91 47 149 136 157 244 4 48 -3 91 -30 201 -162 639 -508 1261 -1028
1845 -163 183 -442 453 -609 590 -30 25 -61 51 -68 58 -31 29 -285 214 -382
279 -401 266 -813 455 -1230 564 -153 40 -249 46 -315 19z"/>
</g>
</svg>
